# xmcd
#
# Track frame offsets:
#	150
#	23299
#	36616
#	51817
#	87175
#	110921
#	145414
#	163948
#	196203
#	214396
#	235477
#	256155
#	282503
#
# Disc length: 4003 seconds
#
# Revision: 0
# Processed by: cddbd v1.4PL0 Copyright (c) Steve Scherf et al.
# Submitted via: EZCDDA 4.3.3.2
#
DISCID=c50fa10d
DTITLE=Muddy Waters - Guitar Player - Best Of
DYEAR=1900
DGENRE=
TTITLE0=Manish Boy
TTITLE1=Baby Please Don't Go
TTITLE2=(I'm Your) Hoochie Coochie Man
TTITLE3=Kansas City
TTITLE4=Nine Below Zero
TTITLE5=You Don't Have to Go
TTITLE6=Corrine Corrina
TTITLE7=Last Nite
TTITLE8=Got My Mojo Morning
TTITLE9=Harry's Groove
TTITLE10=Lonesome In My Bedroom
TTITLE11=They Call Me Muddy Waters
TTITLE12=Everything's Gonna Be Alright
EXTD=
EXTT0=
EXTT1=
EXTT2=
EXTT3=
EXTT4=
EXTT5=
EXTT6=
EXTT7=
EXTT8=
EXTT9=
EXTT10=
EXTT11=
EXTT12=
PLAYORDER=
